<svg xmlns="http://www.w3.org/2000/svg" width="10" height="10" viewBox="0 0 10 10" fill="none">
  <path d="M0.833659 6.25001H2.08366V1.25H0.833659C0.603542 1.25 0.416992 1.43654 0.416992 1.66667V5.83335C0.416992 6.06346 0.603542 6.25001 0.833659 6.25001ZM3.03903 6.78872L5.70591 9.45558C5.7792 9.52889 5.89528 9.53714 5.9782 9.47493L6.33345 9.2085C6.53541 9.05703 6.62641 8.79895 6.56412 8.55431L6.08358 6.66668H8.75033C9.21058 6.66668 9.58366 6.29358 9.58366 5.83335V4.95654C9.58366 4.84767 9.56233 4.73988 9.52091 4.63925L8.23158 1.50804C8.16728 1.35192 8.01512 1.25 7.84628 1.25H3.33366C3.10354 1.25 2.91699 1.43654 2.91699 1.66667V6.49409C2.91699 6.6046 2.96089 6.71058 3.03903 6.78872Z" fill="#646BFA"/>
</svg>