<svg xmlns="http://www.w3.org/2000/svg" width="18" height="18" viewBox="0 0 18 18" fill="none">
  <path d="M4.16667 -0.166626V1.50004H0.833333C0.3731 1.50004 0 1.87314 0 2.33337V15.6667C0 16.127 0.3731 16.5 0.833333 16.5H7.2955C6.3806 15.3587 5.83333 13.91 5.83333 12.3334C5.83333 8.65146 8.81808 5.66671 12.5 5.66671C14.0766 5.66671 15.5253 6.21397 16.6667 7.1289V2.33337C16.6667 1.87314 16.2936 1.50004 15.8333 1.50004H12.5V-0.166626H10.8333V1.50004H5.83333V-0.166626H4.16667ZM17.5 12.3334C17.5 15.0948 15.2614 17.3334 12.5 17.3334C9.73858 17.3334 7.5 15.0948 7.5 12.3334C7.5 9.57196 9.73858 7.33337 12.5 7.33337C15.2614 7.33337 17.5 9.57196 17.5 12.3334ZM11.6667 9.00004V12.6785L13.5774 14.5893L14.7559 13.4108L13.3333 11.9882V9.00004H11.6667Z" fill="#3D46F9" fill-opacity="0.8"/>
</svg>