<svg xmlns="http://www.w3.org/2000/svg" width="18" height="18" viewBox="0 0 18 18" fill="none">
  <path d="M17.2523 7.83129C16.8705 7.77771 16.4803 7.74996 16.0837 7.74996C13.3673 7.74996 10.9549 9.05029 9.43466 11.0591C9.29208 11.0739 9.14724 11.0815 9.00033 11.0815C7.93266 11.0815 6.96047 10.681 6.22275 10.0206L5.11123 11.2625C6.01592 12.0723 7.1765 12.6044 8.45583 12.723C8.00224 13.7513 7.75033 14.8885 7.75033 16.0833C7.75033 16.48 7.77808 16.8701 7.83166 17.252C3.78258 16.6837 0.666992 13.2057 0.666992 8.99996C0.666992 4.39758 4.39795 0.666626 9.00033 0.666626C13.2061 0.666626 16.6841 3.78221 17.2523 7.83129ZM17.2259 9.51413C16.8548 9.45004 16.4732 9.41663 16.0837 9.41663C13.805 9.41663 11.793 10.559 10.5893 12.3062C9.84983 13.3796 9.41699 14.6796 9.41699 16.0833C9.41699 16.4728 9.45041 16.8545 9.51449 17.2255L17.2259 9.51413ZM6.08366 8.58329C6.77402 8.58329 7.33366 8.02363 7.33366 7.33329C7.33366 6.64293 6.77402 6.08329 6.08366 6.08329C5.3933 6.08329 4.83366 6.64293 4.83366 7.33329C4.83366 8.02363 5.3933 8.58329 6.08366 8.58329ZM11.917 8.58329C12.6073 8.58329 13.167 8.02363 13.167 7.33329C13.167 6.64293 12.6073 6.08329 11.917 6.08329C11.2267 6.08329 10.667 6.64293 10.667 7.33329C10.667 8.02363 11.2267 8.58329 11.917 8.58329Z" fill="#3D46F9" fill-opacity="0.8"/>
</svg>