<svg xmlns="http://www.w3.org/2000/svg" width="18" height="18" viewBox="0 0 18 18" fill="none">
  <path d="M10.667 8.16663V5.66663L6.50033 8.99996L10.667 12.3333V9.83329H18.167V8.16663H10.667ZM16.9522 11.5H15.1824C14.1934 13.9431 11.7981 15.6666 9.00033 15.6666C5.31841 15.6666 2.33366 12.6819 2.33366 8.99996C2.33366 5.31806 5.31841 2.33329 9.00033 2.33329C11.7981 2.33329 14.1934 4.05677 15.1824 6.49996H16.9522C15.8903 3.11903 12.7317 0.666626 9.00033 0.666626C4.39799 0.666626 0.666992 4.39758 0.666992 8.99996C0.666992 13.6023 4.39799 17.3333 9.00033 17.3333C12.7317 17.3333 15.8903 14.8809 16.9522 11.5Z" fill="#3D46F9" fill-opacity="0.8"/>
</svg>