<svg xmlns="http://www.w3.org/2000/svg" width="18" height="18" viewBox="0 0 18 18" fill="none">
  <path d="M3.10732 16.9015L7.97901 12.0299C8.53509 12.1784 9.15292 12.0344 9.58909 11.5983C10.24 10.9474 10.24 9.89212 9.58909 9.24128C8.93826 8.59037 7.88301 8.59037 7.23211 9.24128C6.79589 9.67745 6.65203 10.2953 6.80051 10.8514L1.92881 15.723L1.04492 14.8392C3.40195 12.0893 4.28583 9.04487 5.46434 3.93795L10.7677 3.34869L15.4818 8.06278L14.8924 13.366C9.78559 14.5445 6.74106 15.4285 3.99121 17.7854L3.10732 16.9015ZM12.83 0.697041L18.1188 5.98588C18.2816 6.1486 18.2816 6.41242 18.1188 6.57513C18.0564 6.63756 17.9758 6.67854 17.8886 6.69217L16.6602 6.88422L11.9462 2.17018L12.1229 0.932741C12.1555 0.704941 12.3665 0.54665 12.5943 0.579191C12.6836 0.591941 12.7663 0.633291 12.83 0.697041Z" fill="#3D46F9" fill-opacity="0.8"/>
</svg>