<svg xmlns="http://www.w3.org/2000/svg" width="18" height="17" viewBox="0 0 18 17" fill="none">
  <path d="M7.33301 7.5V5L11.4997 8.33333L7.33301 11.6667V9.16667H-0.166992V7.5H7.33301ZM1.04784 10.8333H2.81761C3.80658 13.2765 6.20186 15 8.99967 15C12.6816 15 15.6663 12.0153 15.6663 8.33333C15.6663 4.65143 12.6816 1.66667 8.99967 1.66667C6.20186 1.66667 3.80658 3.39014 2.81761 5.83333H1.04784C2.10973 2.45241 5.26831 0 8.99967 0C13.602 0 17.333 3.73096 17.333 8.33333C17.333 12.9357 13.602 16.6667 8.99967 16.6667C5.26831 16.6667 2.10973 14.2142 1.04784 10.8333Z" fill="#3D46F9" fill-opacity="0.8"/>
</svg>