<svg width="18" height="18" viewBox="0 0 18 18" fill="none" xmlns="http://www.w3.org/2000/svg">
<path d="M7 1C10.0506 1 12.5695 3.27672 12.9503 6.22371L14.6382 8.87778C14.7493 9.05253 14.7269 9.31353 14.4695 9.42377L13 10.0533V12.25C13 13.0785 12.3285 13.75 11.5 13.75H10.0008L10 16H3.25L3.25019 13.2296C3.25025 12.3439 2.92263 11.5065 2.31663 10.7508C1.4928 9.72347 1 8.4193 1 7C1 3.68629 3.68629 1 7 1ZM16.1151 13.0768L14.867 12.2447C15.5827 11.1732 16 9.88533 16 8.50008C16 7.11475 15.5827 5.82692 14.867 4.75541L16.1151 3.92328C16.99 5.23289 17.5 6.80691 17.5 8.50008C17.5 10.1932 16.99 11.7671 16.1151 13.0768Z" fill="#3D46F9" fill-opacity="0.8"/>
</svg>
