<svg width="17" height="17" viewBox="0 0 17 17" fill="none" xmlns="http://www.w3.org/2000/svg">
<path d="M9.2571 1.5C9.0912 1.96926 9 2.47395 9 3.00001C9 5.48529 11.0147 7.50003 13.5 7.50003C14.0261 7.50003 14.5307 7.40883 15 7.24293V12.75C15 13.1643 14.6642 13.5 14.25 13.5H3.34058L0 16.125V2.25001C1.5e-05 1.83581 0.335798 1.5 0.75 1.5H9.2571ZM13.147 0.239509C13.2794 -0.0798314 13.7207 -0.0798412 13.853 0.239509L14.0427 0.698006C14.3666 1.48011 14.9711 2.10464 15.731 2.44263L16.2686 2.68214C16.5767 2.81915 16.5767 3.2673 16.2686 3.40431L15.6995 3.65772C14.9588 3.98718 14.3651 4.58961 14.0354 5.34596L13.8501 5.77003C13.7147 6.08064 13.2852 6.08064 13.1499 5.77003L12.9646 5.34596C12.635 4.5896 12.0413 3.98718 11.3006 3.65772L10.7307 3.40431C10.4231 3.26717 10.4231 2.81925 10.7307 2.68214L11.2691 2.44263C12.0288 2.10464 12.6334 1.48011 12.9573 0.698006L13.147 0.239509Z" fill="#3D46F9" fill-opacity="0.8"/>
</svg>
