<svg xmlns="http://www.w3.org/2000/svg" width="10" height="9" viewBox="0 0 10 9" fill="none">
  <path d="M0.416667 3.26659H1.66667V8.2666H0.416667C0.18655 8.2666 0 8.08006 0 7.84993V3.68326C0 3.45314 0.18655 3.26659 0.416667 3.26659ZM2.62204 2.72788L5.28892 0.0610221C5.36221 -0.0122904 5.47829 -0.0205362 5.56121 0.0416679L5.91646 0.308101C6.11842 0.459568 6.20942 0.717655 6.14713 0.962293L5.66658 2.84992H8.33333C8.79358 2.84992 9.16667 3.22302 9.16667 3.68326V4.56006C9.16667 4.66893 9.14533 4.77673 9.10392 4.87735L7.81458 8.00856C7.75029 8.16468 7.59812 8.2666 7.42929 8.2666H2.91667C2.68655 8.2666 2.5 8.08006 2.5 7.84993V3.02251C2.5 2.91201 2.5439 2.80603 2.62204 2.72788Z" fill="#646BFA"/>
</svg>