<svg xmlns="http://www.w3.org/2000/svg" width="18" height="18" viewBox="0 0 18 18" fill="none">
  <path d="M9 16.5C4.85786 16.5 1.5 13.1421 1.5 9C1.5 4.85786 4.85786 1.5 9 1.5C13.1421 1.5 16.5 4.85786 16.5 9C16.5 13.1421 13.1421 16.5 9 16.5ZM6 9.75C6 11.4068 7.34314 12.75 9 12.75C10.6568 12.75 12 11.4068 12 9.75H6ZM6 8.25C6.62132 8.25 7.125 7.7463 7.125 7.125C7.125 6.50368 6.62132 6 6 6C5.37868 6 4.875 6.50368 4.875 7.125C4.875 7.7463 5.37868 8.25 6 8.25ZM12 8.25C12.6213 8.25 13.125 7.7463 13.125 7.125C13.125 6.50368 12.6213 6 12 6C11.3787 6 10.875 6.50368 10.875 7.125C10.875 7.7463 11.3787 8.25 12 8.25Z" fill="#3D46F9" fill-opacity="0.8"/>
</svg>