<svg width="12" height="12" viewBox="0 0 12 12" fill="none" xmlns="http://www.w3.org/2000/svg">
<path d="M6 1C6.27615 1 6.5 1.22386 6.5 1.5C6.5 1.77614 6.27615 2 6 2C3.79086 2 2 3.79086 2 6C2 8.20915 3.79086 10 6 10C8.20915 10 10 8.20915 10 6C10 5.72385 10.2239 5.5 10.5 5.5C10.7761 5.5 11 5.72385 11 6C11 8.7614 8.7614 11 6 11C3.23857 11 1 8.7614 1 6C1 3.23857 3.23857 1 6 1ZM6 3C6.27615 3 6.5 3.22386 6.5 3.5C6.5 3.77614 6.27615 4 6 4C4.89543 4 4 4.89543 4 6C4 7.10455 4.89543 8 6 8C7.10455 8 8 7.10455 8 6C8 5.72385 8.22385 5.5 8.5 5.5C8.77615 5.5 9 5.72385 9 6C9 7.65685 7.65685 9 6 9C4.34314 9 3 7.65685 3 6C3 4.34314 4.34314 3 6 3ZM9.28565 1.05029C9.4237 1.0503 9.5356 1.16224 9.53565 1.30029V2.21484C9.5358 2.35276 9.6477 2.46433 9.78565 2.46435H10.6997C10.8377 2.46435 10.9496 2.57638 10.9497 2.71435V3.17188L10.0054 4.11621C9.8179 4.3036 9.5634 4.40912 9.29835 4.40918H8.29835L6.3535 6.3535C6.15825 6.5487 5.84175 6.54875 5.6465 6.3535C5.45135 6.15825 5.4513 5.8417 5.6465 5.6465L7.5913 3.70215V2.70215C7.5913 2.43706 7.6964 2.18263 7.8838 1.99512L8.8286 1.05029H9.28565Z" fill="#646BFA"/>
</svg>
