<svg xmlns="http://www.w3.org/2000/svg" width="9" height="9" viewBox="0 0 9 9" fill="none">
  <path d="M2.08333 0V0.833333H0.416667C0.18655 0.833333 0 1.01988 0 1.25V7.91667C0 8.14679 0.18655 8.33333 0.416667 8.33333H3.64775C3.1903 7.76267 2.91667 7.03829 2.91667 6.25C2.91667 4.40904 4.40904 2.91667 6.25 2.91667C7.03829 2.91667 7.76267 3.1903 8.33333 3.64776V1.25C8.33333 1.01988 8.14679 0.833333 7.91667 0.833333H6.25V0H5.41667V0.833333H2.91667V0H2.08333ZM8.75 6.25C8.75 7.63071 7.63071 8.75 6.25 8.75C4.86929 8.75 3.75 7.63071 3.75 6.25C3.75 4.86929 4.86929 3.75 6.25 3.75C7.63071 3.75 8.75 4.86929 8.75 6.25ZM5.83333 4.58333V6.42258L6.78871 7.37796L7.37796 6.78871L6.66667 6.07742V4.58333H5.83333Z" fill="#3D46F9" fill-opacity="0.8"/>
</svg>