<svg width="18" height="18" viewBox="0 0 18 18" fill="none" xmlns="http://www.w3.org/2000/svg">
<path d="M11.625 3.75C10.1753 3.75 9 4.92525 9 6.375C9 7.82475 10.1753 9 11.625 9C13.0747 9 14.25 7.82475 14.25 6.375C14.25 4.92525 13.0747 3.75 11.625 3.75ZM7.5 6.375C7.5 4.09682 9.3468 2.25 11.625 2.25C13.9032 2.25 15.75 4.09682 15.75 6.375C15.75 7.24312 15.4818 8.04863 15.0238 8.71313L17.0303 10.7197L15.9697 11.7803L13.9631 9.77378C13.2986 10.2318 12.4931 10.5 11.625 10.5C9.3468 10.5 7.5 8.6532 7.5 6.375ZM2.25 3H6V4.5H2.25V3ZM2.25 8.25H6V9.75H2.25V8.25ZM15.75 13.5V15H2.25V13.5H15.75Z" fill="#3D46F9" fill-opacity="0.8"/>
</svg>
