<svg xmlns="http://www.w3.org/2000/svg" width="12" height="12" viewBox="0 0 12 12" fill="none">
  <path d="M6 11C3.23857 11 1 8.7614 1 6C1 3.23857 3.23857 1 6 1C8.7614 1 11 3.23857 11 6C11 8.7614 8.7614 11 6 11ZM3.5 8.5H4.5C4.5 7.67155 5.17155 7 6 7C6.82845 7 7.5 7.67155 7.5 8.5H8.5C8.5 7.1193 7.3807 6 6 6C4.61929 6 3.5 7.1193 3.5 8.5ZM4 5.5C4.41422 5.5 4.75 5.1642 4.75 4.75C4.75 4.33578 4.41422 4 4 4C3.58578 4 3.25 4.33578 3.25 4.75C3.25 5.1642 3.58578 5.5 4 5.5ZM8 5.5C8.4142 5.5 8.75 5.1642 8.75 4.75C8.75 4.33578 8.4142 4 8 4C7.5858 4 7.25 4.33578 7.25 4.75C7.25 5.1642 7.5858 5.5 8 5.5Z" fill="#3D46F9" fill-opacity="0.8"/>
</svg>