<svg xmlns="http://www.w3.org/2000/svg" width="10" height="10" viewBox="0 0 10 10" fill="none">
  <g clip-path="url(#clip0_1_887)">
    <path d="M4.99967 9.16671C2.69849 9.16671 0.833008 7.30121 0.833008 5.00004C0.833008 2.69885 2.69849 0.833374 4.99967 0.833374C7.30084 0.833374 9.16634 2.69885 9.16634 5.00004C9.16634 7.30121 7.30084 9.16671 4.99967 9.16671ZM3.33301 5.41671C3.33301 6.33717 4.0792 7.08337 4.99967 7.08337C5.92013 7.08337 6.66634 6.33717 6.66634 5.41671H3.33301ZM3.33301 4.58337C3.67819 4.58337 3.95801 4.30354 3.95801 3.95837C3.95801 3.61319 3.67819 3.33337 3.33301 3.33337C2.98783 3.33337 2.70801 3.61319 2.70801 3.95837C2.70801 4.30354 2.98783 4.58337 3.33301 4.58337ZM6.66634 4.58337C7.01151 4.58337 7.29134 4.30354 7.29134 3.95837C7.29134 3.61319 7.01151 3.33337 6.66634 3.33337C6.32117 3.33337 6.04134 3.61319 6.04134 3.95837C6.04134 4.30354 6.32117 4.58337 6.66634 4.58337Z" fill="#3D46F9" fill-opacity="0.8"/>
  </g>
  <defs>
    <clipPath id="clip0_1_887">
      <rect width="10" height="10" fill="white"/>
    </clipPath>
  </defs>
</svg>